<svg width="150" height="110" viewBox="0 0 150 110" fill="none" xmlns="http://www.w3.org/2000/svg">
<path d="M73.6856 102C73.6856 102 87.3012 80.5 73.6856 51C60.07 21.5 75.1854 3 75.1854 3" stroke="white" stroke-width="3" stroke-linejoin="bevel"/>
<path d="M103 53C103 53 133 28.5 103 3" stroke="white" stroke-width="3" stroke-linejoin="round"/>
<path d="M44 103V2" stroke="white" stroke-width="3"/>
<path d="M103 103V2" stroke="white" stroke-width="3"/>
<path d="M20 101.912H3.20001V100.496H20V101.912ZM20 89.6624V91.0304H3.20001V89.7824L17.336 81.3824H3.20001V80.0144H20V81.2624L5.86401 89.6624H20ZM7.95201 62.4749H7.32801C6.41601 62.4749 5.67201 62.8189 5.09601 63.5069C4.52001 64.1949 4.23201 65.0909 4.23201 66.1949C4.23201 67.2509 4.50401 68.1149 5.04801 68.7869C5.57601 69.4589 6.29601 69.7949 7.20801 69.7949C8.47201 69.7949 9.36801 69.1949 9.89601 67.9949L12.272 63.1229C12.624 62.4029 13.128 61.8429 13.784 61.4429C14.424 61.0269 15.136 60.8189 15.92 60.8189C17.2 60.8189 18.232 61.3149 19.016 62.3069C19.784 63.2829 20.168 64.5469 20.168 66.0989C20.168 67.6829 19.768 68.9709 18.968 69.9629C18.152 70.9549 17.104 71.4509 15.824 71.4509H15.128V70.0349H15.824C16.768 70.0349 17.528 69.6749 18.104 68.9549C18.68 68.2189 18.968 67.2589 18.968 66.0749C18.968 64.9389 18.696 64.0189 18.152 63.3149C17.608 62.5949 16.88 62.2349 15.968 62.2349C15.392 62.2349 14.864 62.3949 14.384 62.7149C13.904 63.0189 13.536 63.4589 13.28 64.0349L10.928 68.8589C10.56 69.5949 10.056 70.1709 9.41601 70.5869C8.77601 71.0029 8.06401 71.2109 7.28001 71.2109C5.98401 71.2109 4.95201 70.7469 4.18401 69.8189C3.41601 68.8749 3.03201 67.6669 3.03201 66.1949C3.03201 64.6749 3.43201 63.4429 4.23201 62.4989C5.03201 61.5389 6.06401 61.0589 7.32801 61.0589H7.95201V62.4749ZM18.824 43.1116H20V52.0876H3.20001V43.1116H4.37601V50.6716H11.048V43.7836H12.224V50.6716H18.824V43.1116ZM12.872 33.1572H20V34.5732H3.20001V29.7252C3.20001 28.1092 3.60801 26.8132 4.42401 25.8372C5.24001 24.8612 6.29601 24.3732 7.59201 24.3732H8.48001C9.53601 24.3732 10.44 24.7012 11.192 25.3572C11.928 26.0132 12.432 26.9092 12.704 28.0452L20 23.7252V25.2132L12.872 29.3412V33.1572ZM4.37601 29.7252V33.1572H11.696V29.7252C11.696 28.5412 11.408 27.5892 10.832 26.8692C10.24 26.1492 9.47201 25.7892 8.52801 25.7892H7.52001C6.59201 25.7892 5.84001 26.1492 5.26401 26.8692C4.67201 27.5892 4.37601 28.5412 4.37601 29.7252ZM3.20001 5.74232V4.27832L20 9.96632V11.4543L3.20001 17.1423V15.6783L18.272 10.7103L3.20001 5.74232Z" fill="white"/>
<path d="M117.504 94.872V102H116.088V85.2H120.936C122.552 85.2 123.848 85.608 124.824 86.424C125.8 87.24 126.288 88.296 126.288 89.592V90.48C126.288 91.536 125.96 92.44 125.304 93.192C124.648 93.928 123.752 94.432 122.616 94.704L126.936 102H125.448L121.32 94.872H117.504ZM120.936 86.376H117.504V93.696H120.936C122.12 93.696 123.072 93.408 123.792 92.832C124.512 92.24 124.872 91.472 124.872 90.528V89.52C124.872 88.592 124.512 87.84 123.792 87.264C123.072 86.672 122.12 86.376 120.936 86.376ZM146.019 97.752C146.019 99.064 145.507 100.128 144.483 100.944C143.459 101.76 142.139 102.168 140.523 102.168C138.907 102.168 137.579 101.76 136.539 100.944C135.515 100.128 135.003 99.064 135.003 97.752V89.448C135.003 88.136 135.515 87.072 136.539 86.256C137.579 85.44 138.907 85.032 140.523 85.032C142.139 85.032 143.459 85.44 144.483 86.256C145.507 87.072 146.019 88.136 146.019 89.448V97.752ZM144.627 97.824V89.376C144.627 88.448 144.243 87.696 143.475 87.12C142.707 86.528 141.723 86.232 140.523 86.232C139.323 86.232 138.339 86.528 137.571 87.12C136.803 87.696 136.419 88.448 136.419 89.376V97.824C136.419 98.752 136.803 99.512 137.571 100.104C138.339 100.68 139.323 100.968 140.523 100.968C141.723 100.968 142.707 100.68 143.475 100.104C144.243 99.512 144.627 98.752 144.627 97.824Z" fill="white"/>
</svg>
